<svg width="18" height="18" viewBox="0 0 18 18" fill="none" xmlns="http://www.w3.org/2000/svg">
<g id="Group 48095806">
<circle id="Ellipse 59" cx="9" cy="9" r="8.4375" fill="#E0E0E0" stroke="#E0E0E0" stroke-width="1.125"/>
<path id="Vector" d="M8.01857 11.1824C8.43691 10.7224 8.83864 10.2806 9.24037 9.83792C10.1244 8.86435 11.0089 7.89159 11.8909 6.91641C12.0768 6.71108 12.2995 6.6147 12.57 6.6803C12.8134 6.73943 12.973 6.90223 13.0366 7.14724C13.1005 7.39469 13.0147 7.60123 12.8491 7.78306C12.5405 8.12162 12.2327 8.46059 11.9245 8.79996C10.8157 10.0206 9.70973 11.2436 8.59444 12.4585C8.48348 12.5792 8.32757 12.6845 8.17287 12.7327C7.95661 12.7995 7.74724 12.7218 7.58323 12.5557C6.80002 11.7612 6.01478 10.969 5.23603 10.17C4.9647 9.89138 4.97239 9.49612 5.234 9.24463C5.50209 8.98666 5.88398 8.99881 6.17151 9.28756C6.7494 9.86789 7.32203 10.4539 7.89587 11.0383C7.93717 11.08 7.97241 11.1278 8.01857 11.1824Z" fill="white"/>
</g>
</svg>
