<svg width="18" height="18" viewBox="0 0 18 18" fill="none" xmlns="http://www.w3.org/2000/svg">
<g id="Group 48095806">
<circle id="Ellipse 59" cx="9" cy="9" r="8.4375" fill="#649EFF" stroke="#649EFF" stroke-width="1.125"/>
<path id="Vector" d="M9.0321 9.6489L9.03215 9.64885C9.20678 9.45654 9.38141 9.26428 9.55602 9.07204C10.2655 8.2909 10.9747 7.51012 11.6823 6.72775L11.6824 6.72765C11.9207 6.46439 12.2435 6.31172 12.6363 6.40698L12.6364 6.407C12.985 6.49169 13.2204 6.73584 13.3088 7.0766L13.3088 7.07683C13.4037 7.44352 13.2649 7.74423 13.057 7.97246L13.0569 7.97252C12.758 8.30042 12.4599 8.62873 12.1612 8.95765L12.1327 8.98904L12.1327 8.98907C11.8754 9.27227 11.6182 9.55568 11.361 9.83916C10.5101 10.7769 9.65853 11.7153 8.80163 12.6487L8.80148 12.6489C8.66151 12.8011 8.4645 12.9364 8.25652 13.0012L8.2559 13.0014C7.9145 13.1069 7.60057 12.9735 7.38314 12.7534L7.38293 12.7532C7.18748 12.5549 6.9918 12.3566 6.79603 12.1583C6.20806 11.5627 5.61941 10.9663 5.03462 10.3663L5.03453 10.3662C4.65893 9.98052 4.66034 9.40607 5.03899 9.04197C5.2248 8.86317 5.46075 8.76978 5.7072 8.78007L9.0321 9.6489ZM9.0321 9.6489C8.69788 10.0172 8.36365 10.3849 8.0198 10.763M9.0321 9.6489L8.0198 10.763M8.0198 10.763C7.95696 10.8321 7.89381 10.9016 7.83028 10.9715L8.09654 10.8412C8.07096 10.8152 8.04538 10.7891 8.0198 10.763ZM8.0198 10.763C7.92756 10.6691 7.83531 10.575 7.74302 10.481C7.2873 10.0164 6.83065 9.55089 6.3708 9.0891L8.0198 10.763Z" fill="white" stroke="#649EFF" stroke-width="0.5625"/>
</g>
</svg>
