<svg width="24" height="24" viewBox="0 0 24 24" fill="none" xmlns="http://www.w3.org/2000/svg">
<g id="Group 48095806">
<circle id="Ellipse 59" cx="12" cy="12" r="11.4375" fill="#E0E0E0" stroke="#E0E0E0" stroke-width="1.125"/>
<g id="Vector">
<path fill-rule="evenodd" clip-rule="evenodd" d="M14.7945 8.14013C15.0441 8.34646 15.0698 8.7053 14.8519 8.94163L8.56624 15.7582C8.4523 15.8817 8.28751 15.9526 8.11426 15.9526C7.94101 15.9526 7.77621 15.8817 7.66227 15.7582L5.14802 13.0315C4.93009 12.7952 4.95579 12.4364 5.20541 12.2301C5.45504 12.0237 5.83406 12.0481 6.05199 12.2844L8.11426 14.5208L13.9479 8.19447C14.1658 7.95814 14.5449 7.93381 14.7945 8.14013Z" fill="white"/>
<path fill-rule="evenodd" clip-rule="evenodd" d="M18.8138 8.20409C19.0538 8.42045 19.063 8.78001 18.8345 9.00719L11.9772 15.8237C11.856 15.9442 11.6851 16.0083 11.5097 15.9991C11.3342 15.99 11.1718 15.9084 11.0654 15.7761L10.7227 15.3501C10.522 15.1005 10.573 14.744 10.8366 14.554C11.0631 14.3907 11.3728 14.4033 11.5829 14.5684L17.9655 8.22366C18.1941 7.99649 18.5738 7.98773 18.8138 8.20409Z" fill="white"/>
</g>
</g>
</svg>
