<svg width="12" height="10" viewBox="0 0 12 10" fill="none" xmlns="http://www.w3.org/2000/svg">
<g id="Group 48095806">
<path id="Vector" d="M4.47847 7.18205C5.09768 6.50109 5.69231 5.8471 6.28693 5.19191C7.59548 3.75087 8.90462 2.31102 10.2102 0.867571C10.4853 0.563656 10.815 0.42099 11.2154 0.518099C11.5757 0.605617 11.8118 0.846591 11.9059 1.20925C12.0007 1.57551 11.8736 1.88122 11.6284 2.15037C11.1716 2.6515 10.7161 3.15323 10.2599 3.65556C8.6187 5.46226 6.98167 7.27256 5.33085 9.07088C5.16661 9.24951 4.93583 9.40536 4.70685 9.4767C4.38676 9.5756 4.07686 9.46051 3.83409 9.21474C2.6748 8.03864 1.51252 6.86614 0.359823 5.68345C-0.0417917 5.27104 -0.0304023 4.68599 0.356826 4.31374C0.753645 3.9319 1.3189 3.94988 1.74449 4.37728C2.59987 5.23627 3.44746 6.10366 4.29684 6.96865C4.35799 7.03039 4.41014 7.10112 4.47847 7.18205Z" fill="#E0E0E0"/>
</g>
</svg>
